<?xml version="1.0" standalone="no"?>
<!DOCTYPE svg PUBLIC "-//W3C//DTD SVG 20010904//EN"
 "http://www.w3.org/TR/2001/REC-SVG-20010904/DTD/svg10.dtd">
<svg version="1.0" xmlns="http://www.w3.org/2000/svg"
 width="1024.000000pt" height="1024.000000pt" viewBox="0 0 1024.000000 1024.000000"
 preserveAspectRatio="xMidYMid meet">

<g transform="translate(0.000000,1024.000000) scale(0.100000,-0.100000)"
fill="#000000" stroke="none">
<path d="M0 5120 l0 -5120 5120 0 5120 0 0 5120 0 5120 -5120 0 -5120 0 0
-5120z m3010 2885 l0 -65 -70 0 -70 0 0 65 0 65 70 0 70 0 0 -65z m2670 -500
l0 -95 96 0 95 0 -3 -100 -3 -100 88 0 87 0 0 -470 0 -470 -126 0 -126 0 5
-56 c4 -46 2 -54 -10 -49 -9 3 -58 2 -109 -1 l-94 -7 0 -238 0 -239 -77 0 -76
0 6 135 7 135 -65 0 -65 0 0 -135 0 -135 -70 0 -70 0 0 53 c0 30 -3 88 -6 130
l-7 77 -63 0 -64 0 -1 -37 c-1 -21 -2 -42 -4 -48 -1 -5 -3 -47 -3 -92 l-2 -83
-72 0 -73 0 -1 53 c-1 28 -2 87 -3 130 l-1 77 -60 0 -60 0 0 -130 0 -130 -75
0 -75 0 0 246 0 246 -82 -3 c-46 -1 -109 -2 -140 -1 l-58 2 0 50 0 50 -94 0
-95 0 1 470 0 470 88 0 87 0 7 61 c3 34 6 79 6 99 0 24 5 38 13 37 6 0 49 1
95 1 l82 2 0 95 0 95 585 0 585 0 0 -95z m190 -1550 l0 -65 -66 0 -66 0 6 38
c3 20 5 49 6 65 0 26 1 27 60 27 l60 0 0 -65z m-3769 -1997 c35 -87 219 -458
227 -458 5 0 62 110 128 245 l119 245 102 0 103 0 0 -550 0 -551 -95 3 -95 3
0 343 c0 188 -3 342 -7 342 -5 0 -36 -53 -71 -118 -160 -300 -140 -272 -186
-272 l-41 0 -105 194 c-57 107 -108 192 -113 189 -4 -2 -8 -57 -7 -121 1 -65
1 -217 1 -339 l-1 -221 -92 1 -93 2 0 540 c-1 297 1 543 3 548 2 4 50 7 106 7
l104 0 13 -32z m1211 -208 c64 -132 121 -240 126 -240 8 0 232 453 232 471 0
5 50 9 110 9 l110 0 0 -549 0 -549 -95 0 -95 1 -1 101 c-2 404 -5 575 -11 581
-3 3 -53 -81 -110 -187 l-103 -193 -39 1 -40 0 -97 180 c-54 98 -98 185 -98
192 -1 6 -5 12 -11 12 -6 0 -10 -122 -10 -346 l0 -345 -97 3 -98 3 -2 548 -2
547 107 0 107 0 117 -240z m1025 178 c60 -139 203 -418 215 -418 7 1 66 109
130 240 l117 240 101 0 c89 0 100 -2 100 -17 0 -53 1 -930 0 -999 l0 -80 -95
-1 -95 0 1 345 c0 189 -2 346 -4 348 -3 3 -16 -17 -30 -43 -14 -26 -61 -115
-105 -198 l-80 -150 -42 0 c-48 0 -31 -24 -168 237 -42 82 -80 148 -84 148 -5
0 -8 -154 -8 -343 l0 -344 -95 -1 -95 -1 0 549 0 550 105 0 106 0 26 -62z
m1053 -127 l0 -189 128 -4 c161 -5 198 -23 248 -118 17 -32 19 -61 19 -315 l0
-280 -92 -2 -93 -2 -1 237 c-1 130 -1 245 0 254 3 27 -32 38 -123 38 l-86 0 0
-263 0 -263 -92 0 -93 1 -1 540 c0 297 1 543 3 548 2 4 44 7 94 7 l89 0 0
-189z m1070 -146 l0 -335 85 0 85 0 0 -85 0 -85 -85 0 -85 0 0 -130 0 -131
-82 3 -83 3 -1 100 c-1 55 -2 112 -3 128 l-1 27 -190 0 -190 0 0 122 0 122 56
96 c32 52 113 186 181 298 l125 202 94 0 94 0 0 -335z m845 324 c54 -14 120
-69 141 -118 9 -20 18 -69 21 -108 l6 -73 -96 0 -96 0 -3 58 -3 57 -152 0
-152 0 -7 -357 -6 -358 161 0 161 0 0 55 0 55 95 0 95 0 0 -58 c0 -81 -24
-144 -70 -186 -57 -51 -97 -58 -306 -54 l-182 3 -43 30 c-23 17 -52 48 -63 70
-20 39 -21 54 -21 440 0 394 0 401 22 442 25 46 63 77 120 98 47 17 314 20
378 4z m525 -219 l0 -230 38 0 37 0 129 230 129 230 109 0 c59 0 108 -4 108
-9 0 -5 -69 -128 -153 -274 l-154 -264 154 -269 c84 -148 153 -272 153 -276 0
-5 -46 -8 -103 -8 l-104 0 -108 183 c-172 291 -155 267 -197 267 l-38 0 0
-225 0 -225 -95 1 -95 1 0 549 0 549 95 0 95 0 0 -230z"/>
<path d="M4310 6746 l0 -266 268 0 268 0 47 48 47 48 6 199 c3 110 7 206 10
213 3 9 -50 12 -239 12 -133 0 -279 3 -324 7 l-83 6 0 -267z"/>
<path d="M5545 7002 l-300 -2 1 -210 2 -209 42 -51 42 -50 264 0 264 0 0 259
c0 143 -3 261 -7 263 -5 2 -143 2 -308 0z"/>
<path d="M5006 6431 c-15 -21 -38 -49 -51 -61 -24 -23 -25 -28 -25 -152 l0
-128 168 0 167 0 -3 126 -4 127 -51 63 -51 64 -61 0 c-61 0 -63 -1 -89 -39z"/>
<path d="M6257 3643 c-68 -107 -187 -304 -187 -308 0 -3 51 -5 113 -5 l112 0
-2 171 c-1 94 -4 173 -6 176 -3 3 -16 -12 -30 -34z"/>
</g>
</svg>
