<?xml version="1.0" standalone="no"?>
<!DOCTYPE svg PUBLIC "-//W3C//DTD SVG 20010904//EN"
 "http://www.w3.org/TR/2001/REC-SVG-20010904/DTD/svg10.dtd">
<svg version="1.0" xmlns="http://www.w3.org/2000/svg"
 width="661.000000pt" height="700.000000pt" viewBox="0 0 661.000000 700.000000"
 preserveAspectRatio="xMidYMid meet">

<g transform="translate(0.000000,700.000000) scale(0.100000,-0.100000)"
fill="#000000" stroke="none">
<path d="M3033 6728 c-115 -42 -190 -75 -186 -81 3 -6 1 -7 -6 -3 -16 10 -442
-144 -434 -157 3 -6 1 -7 -6 -3 -16 10 -442 -145 -434 -157 3 -6 1 -7 -6 -3
-16 10 -442 -144 -434 -157 3 -6 1 -7 -5 -3 -16 10 -63 -4 -55 -17 3 -6 1 -7
-5 -3 -18 11 -166 -45 -150 -56 9 -6 7 -8 -8 -4 -22 7 -244 -68 -228 -76 5 -3
3 -3 -4 -2 -20 5 -353 -117 -346 -127 3 -5 -2 -6 -10 -3 -32 12 -166 -68 -166
-100 0 -6 5 -4 11 4 9 13 10 13 6 0 -2 -8 -10 -15 -18 -15 -38 0 -39 -50 -36
-1430 3 -1207 5 -1340 21 -1435 43 -262 118 -505 221 -715 124 -252 266 -447
494 -676 216 -216 325 -303 691 -555 383 -264 584 -397 596 -397 7 0 12 -4 11
-8 -2 -6 572 -406 648 -450 43 -26 139 -28 185 -4 18 9 132 85 254 168 121 83
295 202 386 263 428 292 479 328 473 337 -3 6 -1 7 5 3 11 -6 39 13 322 213
286 203 527 414 675 592 104 125 208 276 199 291 -4 7 -3 9 1 5 11 -10 40 37
111 176 138 273 226 577 254 882 6 67 10 610 10 1392 0 1154 -2 1287 -16 1323
-9 22 -20 37 -25 34 -5 -3 -6 1 -3 9 7 19 -60 72 -77 61 -7 -4 -9 -3 -6 2 6
11 -64 38 -428 169 -132 47 -282 102 -334 121 -52 19 -100 33 -108 30 -8 -3
-12 -2 -9 2 2 4 -59 31 -137 59 -302 110 -963 348 -1202 434 -137 49 -278 101
-313 114 -106 42 -154 36 -379 -47z m398 -314 c68 -25 196 -72 284 -104 88
-32 295 -108 460 -168 165 -61 410 -151 545 -200 135 -49 288 -106 340 -125
52 -20 203 -74 335 -122 132 -47 266 -95 298 -107 l58 -21 -4 -1271 c-3 -1400
0 -1318 -67 -1571 -30 -112 -94 -295 -125 -354 -9 -18 -14 -35 -12 -38 3 -2
-2 -13 -11 -23 -10 -9 -41 -62 -70 -117 -68 -128 -190 -290 -319 -424 -57 -58
-101 -109 -98 -112 3 -4 2 -5 -1 -3 -3 3 -47 -30 -98 -73 -172 -147 -510 -385
-1396 -986 -96 -65 -194 -132 -218 -147 l-42 -30 -50 37 c-28 21 -55 33 -61
29 -7 -4 -9 -3 -5 4 7 11 -78 75 -101 75 -7 0 -11 2 -8 5 6 7 -8 17 -315 227
-151 104 -302 207 -335 230 -33 23 -163 113 -290 200 -346 238 -442 313 -623
489 -292 284 -503 645 -599 1026 -64 257 -63 226 -63 1590 l0 1236 109 39 c60
22 107 44 104 49 -3 5 -1 6 6 2 16 -10 53 3 45 16 -5 7 -2 8 5 4 15 -9 193 53
186 64 -3 5 5 6 17 3 19 -4 20 -3 8 7 -12 10 -11 11 9 7 31 -7 228 63 209 74
-8 5 -2 8 17 7 34 -2 357 111 350 123 -3 4 5 5 17 1 16 -4 19 -2 13 8 -5 9 -4
11 4 6 16 -10 53 3 45 16 -4 7 -2 8 5 4 17 -11 205 55 189 66 -8 5 -1 6 16 2
22 -5 27 -4 21 6 -5 9 -4 11 3 6 14 -9 653 224 646 236 -3 4 1 5 9 2 7 -2 103
29 213 70 109 41 204 75 210 75 5 1 66 -20 135 -45z m-2751 -558 c0 -2 -7 -7
-16 -10 -8 -3 -12 -2 -9 4 6 10 25 14 25 6z"/>
<path d="M1770 5521 c-19 -10 -45 -33 -57 -51 l-23 -33 0 -1741 c0 -1638 1
-1743 18 -1776 26 -53 74 -80 141 -80 67 0 112 24 138 72 17 31 18 82 23 682
l5 649 103 44 c192 82 362 108 547 84 178 -23 300 -67 637 -227 230 -110 367
-166 483 -199 159 -46 193 -50 410 -49 193 0 218 2 306 26 199 54 355 138 393
213 20 40 21 51 19 933 -2 846 -3 895 -20 925 -10 18 -34 40 -53 49 -57 29
-97 23 -204 -32 -219 -113 -383 -146 -566 -116 -156 27 -288 74 -575 206 -274
126 -426 188 -555 223 -235 66 -516 73 -720 20 -112 -29 -160 -45 -156 -51 2
-4 -8 -7 -24 -8 -28 -1 -28 -1 -32 75 -3 51 -11 88 -24 110 -38 65 -142 91
-214 52z m1040 -514 c103 -27 275 -91 405 -152 514 -240 653 -286 902 -301
162 -10 326 18 466 80 16 8 17 -26 15 -655 l-3 -664 -90 -34 c-134 -50 -229
-65 -365 -58 -201 10 -340 57 -735 245 -404 193 -524 228 -805 238 -130 5
-185 3 -260 -10 -78 -14 -227 -57 -313 -91 -16 -7 -17 27 -15 656 l3 664 125
43 c178 61 247 72 425 67 118 -3 170 -9 245 -28z"/>
</g>
</svg>
